<svg xmlns="http://www.w3.org/2000/svg" viewBox="0 0 600 520" font-family="Inter, system-ui, sans-serif">
  <defs>
    <filter id="shadow" x="-5%" y="-5%" width="110%" height="110%">
      <feDropShadow dx="0" dy="4" stdDeviation="8" flood-opacity="0.2"/>
    </filter>
    <filter id="overlay">
      <feColorMatrix type="matrix" values="0 0 0 0 0   0 0 0 0 0   0 0 0 0 0  0 0 0 0.4 0"/>
    </filter>
  </defs>

  <!-- Background overlay -->
  <rect width="600" height="520" fill="#0f172a" opacity="0.5" rx="8"/>

  <!-- Modal -->
  <rect x="50" y="40" width="500" height="440" fill="#fff" rx="8" filter="url(#shadow)"/>

  <!-- Modal header -->
  <rect x="50" y="40" width="500" height="50" fill="#2563eb" rx="8"/>
  <rect x="50" y="70" width="500" height="20" fill="#2563eb"/>
  <text x="75" y="70" fill="#fff" font-size="14" font-weight="600">📷 Crear Nuevo Snapshot</text>
  <circle cx="525" cy="65" r="12" fill="#1d4ed8"/>
  <text x="520" y="69" fill="#fff" font-size="12">×</text>

  <!-- Warning alert -->
  <g transform="translate(75, 105)">
    <rect width="450" height="40" fill="#fef3c7" rx="6" stroke="#fcd34d" stroke-width="1"/>
    <text x="15" y="16" fill="#92400e" font-size="10" font-weight="600">⚠ Se creará un snapshot completo</text>
    <text x="15" y="30" fill="#a16207" font-size="9">del código fuente actual del sistema.</text>
  </g>

  <!-- Description field -->
  <text x="75" y="170" fill="#334155" font-size="11" font-weight="600">Descripción del cambio <tspan fill="#dc2626">*</tspan></text>
  <rect x="75" y="178" width="450" height="70" fill="#fff" rx="6" stroke="#cbd5e1" stroke-width="1"/>
  <text x="85" y="200" fill="#94a3b8" font-size="10">Describa los cambios incluidos en esta versión...</text>
  <text x="85" y="215" fill="#334155" font-size="10">Actualización de validaciones</text>
  <text x="85" y="230" fill="#334155" font-size="10">REM Serie A - Marzo 2026</text>
  <text x="75" y="260" fill="#94a3b8" font-size="9">Este campo es obligatorio para identificar la versión</text>

  <!-- Included files -->
  <text x="75" y="290" fill="#334155" font-size="11" font-weight="500">Archivos incluidos</text>
  <g transform="translate(75, 300)">
    <rect width="40" height="20" rx="4" fill="#dcfce7"/>
    <text x="8" y="14" fill="#166534" font-size="8">.php</text>
    <rect x="48" width="40" height="20" rx="4" fill="#dcfce7"/>
    <text x="56" y="14" fill="#166534" font-size="8">.js</text>
    <rect x="96" width="40" height="20" rx="4" fill="#dcfce7"/>
    <text x="104" y="14" fill="#166534" font-size="8">.css</text>
    <rect x="144" width="40" height="20" rx="4" fill="#dcfce7"/>
    <text x="152" y="14" fill="#166534" font-size="8">.sql</text>
    <rect x="192" width="40" height="20" rx="4" fill="#dcfce7"/>
    <text x="200" y="14" fill="#166534" font-size="8">.json</text>
    <rect x="240" width="40" height="20" rx="4" fill="#dcfce7"/>
    <text x="248" y="14" fill="#166534" font-size="8">.md</text>
  </g>

  <!-- Excluded files -->
  <text x="75" y="355" fill="#334155" font-size="11" font-weight="500">Archivos excluidos</text>
  <g transform="translate(75, 365)">
    <rect width="80" height="20" rx="4" fill="#fee2e2"/>
    <text x="8" y="14" fill="#991b1b" font-size="8">node_modules/</text>
    <rect x="88" width="40" height="20" rx="4" fill="#fee2e2"/>
    <text x="96" y="14" fill="#991b1b" font-size="8">.git/</text>
    <rect x="136" width="60" height="20" rx="4" fill="#fee2e2"/>
    <text x="144" y="14" fill="#991b1b" font-size="8">uploads/</text>
    <rect x="204" width="55" height="20" rx="4" fill="#fee2e2"/>
    <text x="212" y="14" fill="#991b1b" font-size="8">vendor/</text>
    <rect x="267" width="40" height="20" rx="4" fill="#fee2e2"/>
    <text x="275" y="14" fill="#991b1b" font-size="8">*.log</text>
    <rect x="315" width="40" height="20" rx="4" fill="#fee2e2"/>
    <text x="323" y="14" fill="#991b1b" font-size="8">*.tmp</text>
    <rect x="363" width="40" height="20" rx="4" fill="#fee2e2"/>
    <text x="371" y="14" fill="#991b1b" font-size="8">.env</text>
  </g>

  <!-- Footer buttons -->
  <line x1="50" y1="430" x2="550" y2="430" stroke="#e2e8f0" stroke-width="1"/>
  <rect x="310" y="438" width="90" height="32" rx="6" fill="#fff" stroke="#cbd5e1" stroke-width="1"/>
  <text x="335" y="458" fill="#64748b" font-size="11">Cancelar</text>
  <rect x="410" y="438" width="120" height="32" rx="6" fill="#2563eb"/>
  <text x="430" y="458" fill="#fff" font-size="11" font-weight="500">📷 Crear Snapshot</text>
</svg>
